<?xml version="1.0" standalone="no"?>
<!DOCTYPE svg PUBLIC "-//W3C//DTD SVG 20010904//EN"
 "http://www.w3.org/TR/2001/REC-SVG-20010904/DTD/svg10.dtd">
<svg version="1.0" xmlns="http://www.w3.org/2000/svg"
 width="400.000000pt" height="400.000000pt" viewBox="0 0 400.000000 400.000000"
 preserveAspectRatio="xMidYMid meet">
<metadata>
Created by potrace 1.11, written by Peter Selinger 2001-2013
</metadata>
<g transform="translate(0.000000,400.000000) scale(0.100000,-0.100000)"
fill="#000000" stroke="none">
<path d="M1716 3628 c-7 -21 -27 -246 -31 -333 l-3 -79 -41 -29 c-40 -28 -42
-31 -36 -70 5 -42 5 -42 -51 -77 -95 -59 -198 -197 -244 -324 -60 -168 -73
-255 -73 -471 0 -187 14 -306 55 -465 49 -191 114 -331 211 -458 34 -45 46
-67 37 -70 -29 -10 -91 -76 -98 -106 -7 -26 -17 -34 -63 -51 -70 -26 -138 -62
-165 -87 -22 -20 -22 -20 -64 11 -69 50 -131 66 -250 65 -117 -1 -176 -18
-286 -79 -118 -66 -212 -185 -266 -335 -20 -56 -23 -84 -23 -210 0 -96 4 -152
12 -166 13 -22 13 -22 425 -20 l413 1 3 80 c2 44 -2 118 -8 164 -6 46 -9 85
-6 88 8 8 88 -50 110 -80 18 -25 21 -44 22 -140 l2 -112 1266 -3 1266 -2 0
369 0 370 -27 21 c-45 35 -164 88 -238 106 -104 24 -259 15 -345 -20 -82 -34
-162 -86 -222 -147 -47 -48 -58 -51 -58 -17 0 29 -58 149 -82 171 -36 31 -140
75 -197 83 -46 6 -53 10 -65 39 -24 56 -109 104 -213 120 -24 4 -43 11 -43 17
0 5 11 24 24 41 48 64 84 160 112 297 15 77 15 111 5 355 -22 501 -45 637
-138 817 -71 138 -181 234 -291 254 -49 9 -61 16 -75 45 -10 18 -22 25 -53 27
l-40 3 -48 152 c-68 217 -107 299 -120 255z m94 -245 l53 -156 -27 -24 c-32
-27 -106 -32 -126 -8 -14 17 -9 139 12 294 14 106 19 101 88 -106z m-220 -538
c16 -19 7 -81 -16 -106 -34 -37 -114 -18 -114 27 0 38 17 63 53 78 43 19 62
19 77 1z m-130 -210 c0 -31 -5 -39 -43 -61 -23 -15 -53 -40 -65 -57 -26 -37
-27 -29 -7 40 17 58 63 113 94 113 17 0 21 -6 21 -35z m605 -11 c54 -58 21
-158 -64 -201 -69 -35 -135 -8 -165 67 -20 50 -20 81 -2 125 l15 35 96 0 c91
0 97 -1 120 -26z m-414 -14 c25 -14 49 -62 49 -100 0 -97 -104 -160 -194 -119
-31 14 -56 65 -56 114 0 51 13 70 62 88 77 28 110 32 139 17z m-236 -350 c27
0 42 -30 55 -113 13 -83 9 -137 -10 -137 -16 0 -80 61 -96 92 -18 34 -44 163
-44 215 l0 36 41 -47 c22 -25 47 -46 54 -46z m-958 -1542 c-3 -8 -6 -5 -6 6
-1 11 2 17 5 13 3 -3 4 -12 1 -19z"/>
<path d="M1934 2554 c-9 -35 16 -63 35 -40 16 20 6 66 -14 66 -8 0 -18 -12
-21 -26z"/>
<path d="M1566 2522 c-9 -27 3 -54 23 -50 22 5 22 62 -1 66 -9 2 -19 -5 -22
-16z"/>
</g>
</svg>
